<mxfile host="app.diagrams.net" modified="2023-05-23T18:13:27.516Z" agent="Mozilla/5.0 (Windows NT 10.0; Win64; x64) AppleWebKit/537.36 (KHTML, like Gecko) Chrome/113.0.0.0 Safari/537.36" version="21.3.3" etag="OQYY9gkMbUsq0gA_bZJL" type="github">
  <diagram name="PÃ¡gina-1" id="-2w1s80wq54ygYz5zMxj">
    <mxGraphModel>
      <root>
        <mxCell id="0" />
        <mxCell id="1" parent="0" />
      </root>
    </mxGraphModel>
  </diagram>
</mxfile>
